<svg preserveAspectRatio="none" overflow="visible" style="display: block;" width="24" height="24" viewBox="0 0 24 24" fill="none" xmlns="http://www.w3.org/2000/svg">
<g id="&#231;&#190;&#164;&#228;&#189;&#147; 1">
<path id="Vector" d="M12.648 12.36C13.56 11.7327 14.2474 10.83 14.6098 9.78408C14.9721 8.73813 14.9904 7.60369 14.662 6.54661C14.3335 5.48952 13.6755 4.56522 12.7842 3.90882C11.8929 3.25242 10.8149 2.89834 9.708 2.89834C8.60106 2.89834 7.52314 3.25242 6.63182 3.90882C5.7405 4.56522 5.08251 5.48952 4.75405 6.54661C4.42558 7.60369 4.44386 8.73813 4.80621 9.78408C5.16857 10.83 5.85599 11.7327 6.768 12.36C5.12837 12.964 3.71318 14.0559 2.71295 15.4887C1.71273 16.9214 1.1755 18.6263 1.1736 20.3736C1.1736 20.5646 1.24946 20.7477 1.38448 20.8827C1.51951 21.0177 1.70264 21.0936 1.8936 21.0936C2.08456 21.0936 2.26769 21.0177 2.40272 20.8827C2.53774 20.7477 2.6136 20.5646 2.6136 20.3736C2.63786 18.5082 3.39592 16.7274 4.72363 15.4169C6.05134 14.1063 7.84183 13.3715 9.7074 13.3715C11.573 13.3715 13.3635 14.1063 14.6912 15.4169C16.0189 16.7274 16.7769 18.5082 16.8012 20.3736C16.8012 20.5646 16.8771 20.7477 17.0121 20.8827C17.1471 21.0177 17.3302 21.0936 17.5212 21.0936C17.7122 21.0936 17.8953 21.0177 18.0303 20.8827C18.1653 20.7477 18.2412 20.5646 18.2412 20.3736C18.2396 18.6264 17.7026 16.9216 16.7026 15.4888C15.7025 14.056 14.2875 12.9641 12.648 12.36ZM5.9604 8.0928C5.9604 7.35159 6.18019 6.62703 6.59198 6.01075C7.00378 5.39446 7.58907 4.91412 8.27386 4.63047C8.95864 4.34682 9.71216 4.27261 10.4391 4.41721C11.1661 4.56181 11.8338 4.91874 12.358 5.44285C12.8821 5.96696 13.239 6.63472 13.3836 7.36168C13.5282 8.08864 13.454 8.84216 13.1703 9.52694C12.8867 10.2117 12.4063 10.797 11.7901 11.2088C11.1738 11.6206 10.4492 11.8404 9.708 11.8404C8.71437 11.8394 7.7617 11.4443 7.0591 10.7417C6.35649 10.0391 5.96135 9.08643 5.9604 8.0928Z" fill="#555555"/>
<path id="Vector_2" d="M22.1796 19.7064C22.085 19.7064 21.9914 19.6878 21.9041 19.6516C21.8167 19.6154 21.7373 19.5624 21.6705 19.4955C21.6036 19.4287 21.5506 19.3493 21.5144 19.2619C21.4782 19.1746 21.4596 19.081 21.4596 18.9864C21.4596 15.7296 19.0416 12.8724 16.2864 12.8724C16.0954 12.8724 15.9123 12.7965 15.7773 12.6615C15.6423 12.5265 15.5664 12.3434 15.5664 12.1524C15.5664 11.9614 15.6423 11.7783 15.7773 11.6433C15.9123 11.5083 16.0954 11.4324 16.2864 11.4324C17.5896 11.4324 18.5724 10.1244 18.5724 8.3916C18.5714 7.5606 18.2409 6.7639 17.6533 6.1763C17.0657 5.58869 16.269 5.25815 15.438 5.2572C15.247 5.2572 15.0639 5.18134 14.9289 5.04632C14.7939 4.91129 14.718 4.72816 14.718 4.5372C14.718 4.34624 14.7939 4.16311 14.9289 4.02808C15.0639 3.89306 15.247 3.8172 15.438 3.8172C16.6508 3.81847 17.8136 4.30082 18.6712 5.15841C19.5288 6.01601 20.0111 7.17878 20.0124 8.3916C20.0124 9.8652 19.4784 11.13 18.6192 11.9364C21.0936 13.0404 22.8996 15.8244 22.8996 18.9864C22.8996 19.1774 22.8237 19.3605 22.6887 19.4955C22.5537 19.6305 22.3706 19.7064 22.1796 19.7064Z" fill="#7E86FC"/>
</g>
</svg>
